PathFileType	4	(X/Y/Z)	D:\TRACE\v60_Jaco2_6-2-23\JustBodyDRS_Motion1_1-platform.trc
DataRate	CameraRate	NumFrames	NumMarkers	Units	OrigDataRate	OrigDataStartFrame	OrigNumFrames
100.00	100.00	      29	5	mm	100.00	4688	      7500
Frame#	Time	Left_Front			Right_Front			Left_Aft			Right_Aft			Post			
		X1	Y1	Z1	X2	Y2	Z2	X3	Y3	Z3	X4	Y4	Z4	X5	Y5	Z5	

4688	46.870	-840.60413	-13.31654	-643.13074	729.40991	-11.76968	-648.95398	-748.76361	22.65140	491.09967	693.57147	22.12138	500.27881	-54.41749	1275.23950	-1008.17084	
4689	46.880	-841.35529	-13.22958	-643.53467	728.64197	-12.02383	-648.92957	-749.15271	22.67480	491.02011	692.78027	22.36582	500.34549	-54.72656	1275.06360	-1008.34314	
4690	46.890	-841.99878	-13.52410	-643.53375	728.10443	-12.15098	-648.76697	-750.03473	22.79240	491.09384	692.13263	22.62449	500.30875	-55.59204	1274.74182	-1008.64923	
4691	46.900	-842.41333	-13.61656	-643.61597	727.59796	-12.18804	-648.93713	-750.61566	23.03161	491.19385	691.78851	22.72526	500.25037	-56.64946	1274.28540	-1009.38379	
4692	46.910	-843.21960	-13.69832	-643.56769	726.92877	-12.35893	-648.96118	-751.41919	23.19394	491.13574	690.90747	22.53536	500.26053	-57.40210	1274.29993	-1009.79858	
4693	46.920	-843.92920	-13.76030	-643.36694	726.12390	-12.60128	-649.05920	-751.73370	23.11367	491.01434	690.28851	22.73694	500.23621	-57.62868	1274.18347	-1009.97772	
4694	46.930	-844.48822	-13.81339	-643.43158	725.64899	-12.71952	-649.11487	-752.40698	23.23819	491.06964	689.88403	23.04713	500.15744	-58.30404	1273.84595	-1010.70398	
4695	46.940	-844.98486	-14.10398	-643.62012	725.08948	-12.91237	-649.12238	-752.96075	23.38133	491.04611	689.53375	23.19414	500.15244	-58.75879	1273.64355	-1011.04785	
4696	46.950	-845.52942	-14.31668	-643.73828	724.39618	-13.06576	-649.07001	-753.65363	23.58874	490.96552	688.60596	23.13182	500.14987	-59.28269	1273.34253	-1011.41766	
4697	46.960	-845.91736	-14.42179	-643.71997	724.33020	-12.97198	-648.95447	-754.20160	23.74006	490.87671	687.69763	23.09332	500.10626	-59.60025	1273.10278	-1011.47522	
4698	46.970	-846.51764	-14.42999	-643.82715	723.75574	-13.11787	-649.13190	-754.48425	23.74146	490.83807	687.43964	23.28706	500.03809	-60.28558	1272.99719	-1011.66968	
4699	46.980	-847.24225	-14.61275	-643.67542	723.12701	-13.17035	-649.10785	-754.90790	23.80815	490.85834	687.29425	23.58474	500.06793	-60.94600	1272.70398	-1012.09973	
4700	46.990	-847.59119	-14.66102	-643.72430	722.35693	-13.51808	-649.17950	-755.41943	23.96918	490.86890	686.87573	23.63641	499.96582	-61.31327	1272.42090	-1012.25116	
4701	47.000	-847.98071	-14.80224	-643.79346	721.91467	-13.66702	-649.28455	-756.02917	24.01472	490.71524	686.39484	23.64466	499.87823	-61.71457	1272.24915	-1012.37451	
4702	47.010	-848.33997	-14.91842	-643.83057	721.46484	-13.72409	-649.39075	-756.50140	24.10508	490.67377	685.83026	23.56584	499.84000	-62.04905	1272.10754	-1012.55444	
4703	47.020	-848.70557	-15.07224	-643.87177	721.15918	-13.88814	-649.38812	-756.74329	24.09733	490.64496	685.10535	23.68991	499.90582	-62.29490	1271.98962	-1012.72723	
4704	47.030	-848.77502	-15.12438	-643.80206	720.79999	-14.01679	-649.44342	-756.99750	24.09891	490.64462	684.87878	23.84565	499.82681	-62.43710	1271.89502	-1012.79443	
4705	47.040	-849.10785	-15.08741	-643.94501	720.40503	-14.13417	-649.53632	-757.22449	24.11158	490.59354	684.95642	24.00103	499.77859	-63.01628	1271.87219	-1012.82684	
4706	47.050	-849.56903	-15.30251	-643.91095	720.10022	-14.17499	-649.52509	-757.47028	24.21326	490.58408	684.78516	24.18545	499.79214	-63.62424	1271.46521	-1013.16077	
4707	47.060	-849.76306	-15.28073	-644.00439	719.95990	-14.16475	-649.47565	-757.79266	24.36099	490.51202	684.45074	24.17647	499.81332	-64.21674	1271.32764	-1013.56854	
4708	47.070	-849.94708	-15.45951	-644.11420	719.78754	-14.21754	-649.53400	-758.01440	24.39642	490.45737	684.20105	24.22762	499.72372	-64.45457	1271.25085	-1013.82886	
4709	47.080	-850.20721	-15.63304	-644.11493	719.68811	-14.62981	-649.48694	-758.21136	24.48630	490.47263	683.84375	24.23467	499.71228	-64.57085	1271.07007	-1014.00836	
4710	47.090	-850.55902	-15.75546	-644.11786	719.61505	-14.99824	-649.40253	-758.45850	24.54782	490.46335	683.49695	24.25474	499.63614	-64.70408	1270.71655	-1014.27551	
4711	47.100	-850.74457	-15.84660	-644.03687	719.23871	-14.78526	-649.53418	-758.62915	24.76745	490.53229	683.24585	24.39493	499.59647	-64.76732	1270.61719	-1014.40179	
4712	47.110	-850.87207	-15.78986	-644.05371	719.10443	-15.10704	-649.55933	-758.74957	24.82578	490.48032	683.15680	24.46568	499.55814	-64.79100	1270.46704	-1014.76099	
4713	47.120	-850.78577	-15.85847	-644.14197	719.04761	-15.22160	-649.59937	-758.85638	24.96668	490.48309	683.21185	24.56588	499.56631	-64.91252	1270.36853	-1015.37830	
4714	47.130	-850.89899	-16.06827	-644.14453	718.92694	-15.28361	-649.64868	-758.72949	24.87728	490.61664	682.96533	24.64442	499.51450	-64.81653	1270.26147	-1015.86041	
4715	47.140	-850.94794	-16.24338	-644.31610	718.82947	-15.32080	-649.69342	-759.06018	25.28298	490.50095	682.87952	24.69914	499.50601	-64.80744	1270.08887	-1016.12946	
4716	47.150	-851.04474	-16.27413	-644.21320	718.88623	-15.56535	-649.68402	-759.10675	25.28247	490.45306	682.78107	24.79507	499.49344	-64.92148	1269.97937	-1016.41370	
